<?xml version="1.0" encoding="utf-8"?>
<!-- Generator: Adobe Illustrator 22.1.0, SVG Export Plug-In . SVG Version: 6.00 Build 0)  -->
<svg version="1.1" id="Layer_1_copy" xmlns="http://www.w3.org/2000/svg" xmlns:xlink="http://www.w3.org/1999/xlink" x="0px"
	 y="0px" viewBox="0 0 288 288" style="enable-background:new 0 0 288 288;" xml:space="preserve">
<style type="text/css">
	.st0{fill:none; stroke:#29abe9; stroke-width:8; stroke-miterlimit:10;
	
		stroke-dasharray: 1000;
  		stroke-dashoffset: 1000;
  		
		animation: dash 10s linear alternate infinite;
	
		animation-delay: 1s;
	}

	@keyframes dash {
	  from {
		stroke-dashoffset: 1000;
	  }
	  to {
		stroke-dashoffset: 0;
		
	  }
<!--
	  to {
		stroke-dashoffset: 1000;
	}
	
-->
	
	
}
	
	
	
</style>
<path class="st0" d="M112.4,276.6l-95.8-84.4c-5.6-4.9-6.1-13.4-1.2-19l84.4-96.7c4.9-5.6,13.4-6.2,19-1.2l0.3,0.3
	c5.6,4.9,6.1,13.4,1.2,19l-66.8,75.8c-4.9,5.6-4.4,14,1.2,19l75.5,67c5.5,4.9,6.1,13.4,1.2,19l0,0C126.5,281,118,281.6,112.4,276.6z
	"/>
<path class="st0" d="M174.1,11.4l96.1,84c5.6,4.9,6.2,13.3,1.3,18.9l-84,97c-4.9,5.6-13.4,6.2-19,1.3l-0.3-0.3
	c-5.6-4.9-6.2-13.4-1.3-19l66.5-76.1c4.9-5.6,4.3-14.1-1.2-19l-75.8-66.7c-5.6-4.9-6.1-13.4-1.2-19l0,0C160,7,168.5,6.5,174.1,11.4z
	"/>
</svg>
