<?xml version="1.0" encoding="utf-8"?>
<!-- Generator: Adobe Illustrator 22.1.0, SVG Export Plug-In . SVG Version: 6.00 Build 0)  -->
<svg version="1.1" id="Layer_7" xmlns="http://www.w3.org/2000/svg" xmlns:xlink="http://www.w3.org/1999/xlink" x="0px" y="0px"
	 viewBox="0 0 504 504" style="enable-background:new 0 0 504 504;" xml:space="preserve">
<style type="text/css">
	.st0{fill:none;stroke:#29abe9 ;stroke-width:2;stroke-linecap:round;stroke-linejoin:round;stroke-miterlimit:10;				stroke-dasharray: 1000;
  		stroke-dashoffset: 1000;
  		
		animation: dash 9s linear alternate infinite;
	
		animation-delay: 1s;
	}

	@keyframes dash {
	  from {
		stroke-dashoffset: 1000;
	  }
	  to {
		stroke-dashoffset: 0;
		
	  }
	}
	.st1{display:none;fill:none;stroke:#29abe9;stroke-width:2;stroke-linejoin:round;stroke-miterlimit:10;
		stroke-dasharray: 1000;
  		stroke-dashoffset: 1000;
  		
		animation: dash 10s linear alternate infinite;
	
		animation-delay: 1s;
	}

	@keyframes dash {
	  from {
		stroke-dashoffset: 1000;
	  }
	  to {
		stroke-dashoffset: 0;
		
	  }
	}
	
	.st2{fill:none;stroke:#29abe9;stroke-width:2;stroke-linejoin:round;stroke-miterlimit:10;
		stroke-dasharray: 1000;
  		stroke-dashoffset: 1000;
  		
		animation: dash 9s linear alternate infinite;
	
		animation-delay: 1s;
	}

	@keyframes dash {
	  from {
		stroke-dashoffset: 1000;
	  }
	  to {
		stroke-dashoffset: 0;
		
	  }
	}
	
</style>
<polyline class="st0" points="272.4,328.5 222.1,328 171.8,327.6 "/>
<polyline class="st0" points="272.4,328.5 296.5,318.4 222.9,371.7 148.5,318.4 171.8,327.6 "/>
<polyline class="st0" points="171.8,327.6 222.9,371.7 272.4,328.5 "/>
<polygon class="st1" points="267.1,249 223.8,248.6 180.5,248.2 202.5,210.9 224.5,173.6 245.8,211.3 "/>
<polygon class="st2" points="323.5,299.5 352.2,288.2 355.5,205.2 "/>
<polygon class="st2" points="222.6,298.3 193.8,287 191.7,204 "/>
<polygon class="st2" points="274,210.7 355.5,205.2 323.5,298.3 "/>
<polygon class="st2" points="274,210.7 191.7,204 222.6,297.1 "/>
<g id="Layer_5">
	<line class="st2" x1="222.6" y1="298.3" x2="323.5" y2="299.5"/>
</g>
<polyline class="st2" points="221.9,132.6 222.9,177.1 154.6,170.3 221.9,132.6 289.3,171.5 222.9,177.1 "/>
<path class="st0" d="M191.7,204"/>
<polyline class="st0" points="191.7,204 237.3,193.3 314.7,193.3 355.5,205.2 "/>
<polyline class="st0" points="148.5,318.4 222.6,310.2 296.5,318.4 "/>
</svg>
