<?xml version="1.0" encoding="utf-8"?>
<!-- Generator: Adobe Illustrator 22.1.0, SVG Export Plug-In . SVG Version: 6.00 Build 0)  -->
<svg version="1.1" xmlns="http://www.w3.org/2000/svg" xmlns:xlink="http://www.w3.org/1999/xlink" x="0px" y="0px"
	 viewBox="0 0 144 144" style="enable-background:new 0 0 144 144;" xml:space="preserve">
<style type="text/css">
	.st0{fill:#2EABE2;}
	.st1{fill:#2DAAE1;}
	.st2{fill:#FDFEFF;}
	.st3{fill:#FEFEFF;}
	.st4{fill:none;stroke:#00AEEF;stroke-miterlimit:10;}
	.st5{fill:none;stroke:#00AEEF;stroke-width:1.75;stroke-miterlimit:10;}
</style>
<g id="Layer_3">
	<g>
		<g>
			<path class="st0" d="M70.3,116.5c-1.6-1.8-3.1-3.5-4.7-5.3c-1-1.1-1.9-2.1-2.9-3.2c-2.1-2.4-4.3-4.8-6.4-7.2
				c-2.1-2.4-4.3-4.8-6.4-7.2c-0.5-0.6-1-1.1-1.5-1.8c-0.2-0.2-0.2-0.6-0.3-0.9c-0.3-1.4-0.6-2.8-0.9-4.2c0-0.2-0.1-0.5,0.2-0.6
				c0.2-0.1,0.4,0,0.6,0.2c0.6,0.4,1.2,0.7,1.8,1.1c1,0.6,2,1.2,3,1.8c0.2,0.1,0.4,0.1,0.6,0c1.8-1,3.6-1.9,5.3-2.9
				c0.9-0.5,1.7-1,2.6-1.4c0.3-0.1,0.5-0.1,0.7,0.1c0.9,0.7,1.7,1.4,2.6,2.1c0.2,0.2,0.4,0.2,0.6,0.1c0.6-0.3,1.2-0.5,1.8-0.8
				c1.2-0.5,2.4-1.1,3.6-1.6c0.2-0.1,0.5-0.1,0.6,0c1.6,0.5,3.2,1,4.9,1.4c0.9,0.3,1.8,0.6,2.7,0.9c0.2,0.1,0.4,0.1,0.7-0.1
				c0.9-0.5,1.7-1,2.6-1.5c0.2-0.1,0.5-0.1,0.7-0.1c0.8,0.2,1.6,0.5,2.4,0.7c1.4,0.4,2.8,0.9,4.2,1.3c0.2,0.1,0.4,0,0.5-0.1
				c0.4-0.3,0.9-0.6,1.3-0.9c1.4-1,2.8-2,4.2-3c0.4-0.3,0.8-0.2,0.9,0.3c0.2,1.5,0.5,2.9,0.7,4.3c0.1,0.3,0,0.6-0.2,0.8
				c-1.3,1.4-2.7,2.8-4,4.3c-2.2,2.4-4.5,4.8-6.7,7.2c-2.1,2.2-4.1,4.4-6.2,6.6c-2.4,2.6-4.8,5.1-7.2,7.7c-0.5,0.6-1,1.1-1.5,1.7
				C70.8,116.5,70.6,116.5,70.3,116.5z M67.8,112.5C67.9,112.5,67.9,112.5,67.8,112.5C67.9,112.5,67.9,112.5,67.8,112.5
				C67.9,112.5,67.9,112.5,67.8,112.5c0-0.1,0-0.1-0.1-0.1c0,0-0.1,0.1-0.1,0.1C67.7,112.4,67.8,112.5,67.8,112.5z M73.6,112.5
				c0.1-0.1,0.2-0.2,0.3-0.2c1.7-1.8,3.3-3.6,5-5.4c2-2.2,4-4.3,6-6.5c2.2-2.4,4.5-4.8,6.7-7.2c1.5-1.6,2.9-3.1,4.4-4.6
				c0.2-0.2,0.2-0.3,0.2-0.5c-0.1-0.3-0.1-0.6-0.2-0.9c-0.1-0.9-0.3-1.8-0.5-2.8c-0.1,0.1-0.2,0.1-0.2,0.1c-0.9,0.6-1.8,1.3-2.7,1.9
				c-1.5,1-2.9,2.1-4.4,3.1c-0.5,0.3-1,0.6-1.3,1.2c-0.6,1-1.2,2-1.8,3c-1.5,2.4-2.9,4.8-4.4,7.1c-1.7,2.8-3.4,5.5-5.1,8.3
				C74.9,110.3,74.2,111.4,73.6,112.5C73.5,112.5,73.5,112.6,73.6,112.5C73.5,112.6,73.5,112.6,73.6,112.5z M86.4,90.1
				c-0.1,0-0.2-0.1-0.3-0.1c-4.2-1.3-8.5-2.6-12.7-3.9c-0.7-0.2-1.5-0.4-2.2-0.6c-0.1,0-0.3,0-0.5,0c-0.6,0.3-1.2,0.6-1.8,0.8
				c-3.5,1.5-7.1,3.1-10.6,4.6c-0.6,0.2-1.1,0.5-1.7,0.8c4.7,8,9.4,15.9,14.1,23.8C75.9,107.1,81.1,98.6,86.4,90.1z M67.7,112.3
				C67.7,112.3,67.7,112.3,67.7,112.3c0-0.1,0-0.2,0-0.3c-0.9-1.5-1.8-3-2.7-4.6c-1.4-2.3-2.8-4.7-4.2-7c-1.6-2.8-3.3-5.6-4.9-8.3
				c-0.1-0.1-0.2-0.3-0.3-0.3c-2.3-1.4-4.7-2.8-7-4.2c-0.1-0.1-0.2-0.1-0.3-0.1c0,0.2,0,0.3,0.1,0.4c0.2,1.1,0.5,2.1,0.7,3.2
				c0,0.2,0.1,0.4,0.2,0.6c0.6,0.7,1.2,1.4,1.8,2.1c2.1,2.4,4.3,4.8,6.4,7.2c2.1,2.4,4.3,4.8,6.4,7.2c1,1.1,2,2.2,2.9,3.3
				C67.1,111.6,67.4,112,67.7,112.3z M53.9,89.9c0.7,0.4,1.4,0.8,2,1.2c0.1,0,0.2,0,0.3,0c1.8-0.8,3.7-1.6,5.5-2.4
				c0.7-0.3,1.5-0.7,2.3-1c-0.8-0.6-1.6-1.3-2.3-1.9c-0.1,0-0.2,0-0.3,0c-0.4,0.2-0.7,0.4-1.1,0.6c-1.5,0.8-2.9,1.6-4.4,2.4
				C55.2,89.1,54.6,89.5,53.9,89.9z M88.8,88.2c-0.8-0.2-1.5-0.5-2.2-0.7c-1.3-0.4-2.6-0.8-4-1.3c-0.1,0-0.1,0-0.2,0
				c-0.1,0.1-0.3,0.2-0.4,0.3c-0.6,0.3-1.2,0.6-1.7,0.9c0,0,0,0,0,0c2.2,0.7,4.3,1.3,6.5,1.9c0.1,0,0.2,0,0.2,0
				C87.6,89,88.2,88.6,88.8,88.2z"/>
			<path class="st1" d="M95.8,53.5c0.1,0.6,0.2,1.2,0.2,1.8c0,0.4,0.1,0.7,0.1,1.1c0,0.3-0.2,0.4-0.5,0.3c-1.6-0.5-3.2-1-4.8-1.5
				c-0.1,0-0.4,0-0.5,0.1c-1.2,0.8-2.4,1.6-3.6,2.4c-0.1,0.1-0.4,0.1-0.6,0.1c-3.3-1-6.6-2-9.9-3c-0.2-0.1-0.4,0-0.5,0.1
				c-1.4,0.9-2.9,1.8-4.4,2.7c-0.3,0.2-0.5,0.2-0.8,0c-1.2-0.8-2.4-1.7-3.6-2.5c-0.1-0.1-0.3-0.1-0.4,0c-3.2,1.4-6.5,2.8-9.7,4.2
				c-0.3,0.1-0.6,0.2-1,0c-0.8-0.5-1.7-1-2.5-1.4c-0.2-0.1-0.3-0.1-0.5,0c-0.8,0.5-1.7,0.9-2.5,1.4c-0.4,0.2-0.6,0.2-0.8-0.3
				c-0.7-1.5-1.4-3-2.2-4.5c-0.1-0.2-0.1-0.4,0.1-0.6c1.7-1.9,3.5-3.7,5.2-5.6c2.5-2.7,5.1-5.4,7.6-8.2c2.3-2.5,4.6-4.9,6.9-7.4
				c1.2-1.3,2.4-2.6,3.6-3.9c0.3-0.3,0.5-0.3,0.8,0c1.1,1,2.2,2.1,3.3,3.1c2.1,2,4.1,3.9,6.2,5.9c0.4,0.4,0.8,0.8,1.2,1.2
				c1.8,1.7,3.7,3.5,5.5,5.2c0.8,0.7,1.5,1.4,2.3,2.2c1.5,1.4,3,2.9,4.5,4.3c0.1,0.1,0.2,0.2,0.3,0.2c0.4,0.3,0.5,0.6,0.5,1.1
				C95.6,52.5,95.7,53,95.8,53.5C95.8,53.5,95.8,53.5,95.8,53.5z M94.5,51.5C86.9,44.3,79.4,37.1,71.8,30c0,0-0.1,0-0.1,0
				c0,1.1,0,2.1,0,3.2c0,2,0,4-0.1,6c0,0.9-0.1,1.9-0.1,2.8c0,0.5,0,0.9,0,1.4c0,1.6,0,3.2-0.1,4.8c0,1.1,0,2.2-0.1,3.3
				c0,0.1,0,0.1,0,0.2c0,0.3,0,0.6-0.1,0.8c1.9,0.6,3.7,1.2,5.6,1.8C80,55.1,83,56,86.1,57c0.2,0.1,0.4,0,0.6-0.1
				c1.8-1.3,3.7-2.6,5.5-3.8C93,52.5,93.7,52,94.5,51.5z M48.5,54.1c0.1,0.1,0.2,0.1,0.2,0.1c1.8,1,3.5,2,5.3,3
				c0.8,0.4,1.6,0.9,2.4,1.3c0.1,0.1,0.3,0.1,0.4,0c1.8-0.8,3.5-1.5,5.3-2.3c2-0.9,4.1-1.8,6.1-2.7c0.7-0.3,1.5-0.7,2.2-1
				c0.2-0.1,0.2-0.2,0.2-0.3c0-0.6,0-1.2,0-1.9c0-0.8,0.1-1.6,0.1-2.4c0-1.7,0.1-3.4,0.1-5.1c0-1.1,0-2.3,0.1-3.4
				c0-0.8,0-1.6,0.1-2.5c0-2.2,0-4.4,0.1-6.6c0-0.1,0-0.2,0-0.3c0,0-0.1,0-0.1-0.1c0,0.1-0.1,0.1-0.1,0.2c-0.8,0.9-1.6,1.7-2.4,2.6
				c-2.4,2.6-4.9,5.2-7.3,7.8c-1.9,2-3.8,4-5.6,6c-1.8,1.9-3.6,3.8-5.4,5.7C49.5,53,49,53.6,48.5,54.1z M75,54.5
				c-1.4-0.4-2.6-0.8-3.9-1.2c-0.1,0-0.2,0-0.3,0c-0.5,0.2-1,0.5-1.5,0.7c-0.5,0.2-1,0.4-1.5,0.7c0,0,0.1,0.1,0.1,0.1
				c1,0.7,2,1.4,3.1,2.1c0.1,0.1,0.3,0,0.3,0c0.9-0.6,1.9-1.2,2.8-1.7C74.4,54.9,74.7,54.7,75,54.5z M94.9,52.2
				c-1.2,0.8-2.3,1.6-3.5,2.4c1.3,0.4,2.6,0.8,3.9,1.2C95.1,54.6,95,53.4,94.9,52.2z M48.8,55.3C48.8,55.3,48.8,55.3,48.8,55.3
				c0.5,1.1,1,2.1,1.5,3.2c0.7-0.4,1.4-0.8,2.1-1.2C51.2,56.6,50,55.9,48.8,55.3z"/>
			<path class="st2" d="M67.8,112.5c-0.1,0-0.1,0-0.2-0.1c0,0,0.1-0.1,0.1-0.1C67.8,112.4,67.8,112.4,67.8,112.5
				C67.9,112.5,67.9,112.5,67.8,112.5z"/>
			<path class="st2" d="M67.9,112.4C67.9,112.5,67.9,112.5,67.9,112.4c0,0.1,0,0.1,0,0.1C67.9,112.5,67.9,112.5,67.9,112.4
				C67.9,112.5,67.9,112.5,67.9,112.4z"/>
			<path class="st3" d="M73.6,112.5C73.5,112.6,73.5,112.6,73.6,112.5C73.5,112.6,73.5,112.5,73.6,112.5
				C73.5,112.5,73.6,112.5,73.6,112.5z"/>
		</g>
	</g>
	<g>
		<path class="st4" d="M60.3,71.3v-0.6h1.3V64h1.9c1.9,0,3.5,0.7,4.9,2.1c1.3,1.4,2,3,2,4.9s-0.7,3.5-2,4.9c-1.3,1.4-3,2.1-4.9,2.1
			h-1.9v-6.7H60.3z M63.5,77.4c1.7,0,3.2-0.6,4.4-1.9c1.2-1.3,1.8-2.8,1.8-4.5s-0.6-3.2-1.8-4.5c-1.2-1.3-2.7-1.9-4.4-1.9h-1.3v6.1
			h2.1v0.6h-2.1v6.1H63.5z"/>
	</g>
</g>
<g id="Layer_2">
	<path class="st5" d="M78.4,78.7v-14c0,0,8.5-1.4,5.9,6.3"/>
</g>
</svg>
