<?xml version="1.0" encoding="utf-8"?>
<!-- Generator: Adobe Illustrator 22.1.0, SVG Export Plug-In . SVG Version: 6.00 Build 0)  -->
<svg version="1.1" xmlns="http://www.w3.org/2000/svg" xmlns:xlink="http://www.w3.org/1999/xlink" x="0px" y="0px"
	 viewBox="0 0 504 504" style="enable-background:new 0 0 504 504;" xml:space="preserve">
<style type="text/css">
	.st0{fill:none;stroke:#27AAE1;stroke-width:2;stroke-linejoin:bevel;stroke-miterlimit:10;
				stroke-dasharray: 1000;
				stroke-dashoffset: 1000;

				animation: dash 10s linear alternate infinite;

				animation-delay: 1s;
			}

			@keyframes dash {
			  from {
				stroke-dashoffset: 1000;
			  }
			  to {
				stroke-dashoffset: 0;

			  }
			}		
	.st1{fill:none;stroke:#2CAADC;stroke-width:2;stroke-linejoin:round;stroke-miterlimit:10;
				stroke-dasharray: 1000;
				stroke-dashoffset: 1000;

				animation: dash 10s linear alternate infinite;

				animation-delay: 1s;
			}

			@keyframes dash {
			  from {
				stroke-dashoffset: 1000;
			  }
			  to {
				stroke-dashoffset: 0;

			  }
			}	
</style>
<g id="Layer_4">
	<polygon class="st0" points="160.9,483 120,444.3 120,308.3 157.7,243.8 186.9,229.5 320.5,229.5 346.3,245.4 384,308.3 384,444.3 
		348.3,484.9 	"/>
	<path class="st0" d="M327.1,281.2"/>
	<polyline class="st0" points="120,308.3 160.9,328.6 215.7,303.4 157.7,243.8 	"/>
	<polyline class="st0" points="160.9,483 215.7,303.4 252,366.6 160.9,483 160.9,328.6 	"/>
	<polyline class="st0" points="157.7,243.8 283.9,259.9 346.3,245.4 327.1,281.2 215.7,303.4 	"/>
	<line class="st0" x1="283.9" y1="259.9" x2="327.1" y2="281.2"/>
	<polyline class="st0" points="348.3,484.9 346.3,404.3 384,308.3 329.7,362.2 252,366.6 346.3,404.3 329.7,362.2 327.1,281.2 	"/>
</g>
<g id="Layer_8">
	<polygon class="st1" points="335.5,139.3 302.4,191.1 245.2,213.5 185.8,198 146.8,150.5 143.1,89.2 176.2,37.5 233.4,15.1 
		292.8,30.6 331.8,78 	"/>
	<polyline class="st1" points="146.8,150.5 233.1,123.9 224.5,169.6 245.2,213.5 	"/>
	<path class="st1" d="M185.8,198"/>
	<polyline class="st1" points="263.4,180.3 297.7,119.7 269,79.2 	"/>
	<polyline class="st1" points="335.5,139.3 297.7,119.7 233.1,123.9 189.3,71.5 176.2,37.5 	"/>
	<line class="st1" x1="161.6" y1="91.7" x2="143.1" y2="89.2"/>
	<polyline class="st1" points="185,172.2 224.5,169.6 302.4,191.1 	"/>
	<polyline class="st1" points="233.4,15.1 269,79.2 189.3,71.5 161.6,91.7 164.9,142.7 185,172.2 185.8,198 	"/>
	<polyline class="st1" points="297.7,119.7 331.8,78 269,79.2 292.8,30.6 	"/>
</g>
</svg>
