<?xml version="1.0" encoding="utf-8"?>
<!-- Generator: Adobe Illustrator 22.1.0, SVG Export Plug-In . SVG Version: 6.00 Build 0)  -->
<svg version="1.1" xmlns="http://www.w3.org/2000/svg" xmlns:xlink="http://www.w3.org/1999/xlink" x="0px" y="0px"
	 viewBox="0 0 504 504" style="enable-background:new 0 0 504 504;" xml:space="preserve">
<style type="text/css">
	.st0{fill:none;stroke:#27AAE1;stroke-width:3;stroke-linecap:round;stroke-linejoin:round;stroke-miterlimit:10;stroke-dasharray: 1000;
				stroke-dashoffset: 1000;

				animation: dash 10s linear alternate infinite;

				animation-delay: 1s;
			}

			@keyframes dash {
			  from {
				stroke-dashoffset: 1000;
			  }
			  to {
				stroke-dashoffset: 0;

			  }
			}	
</style>
<g id="Layer_2">
	<polygon class="st0" points="376,366.4 380.2,391.9 252.3,487.5 329.1,399.3 	"/>
	<polygon class="st0" points="117.6,381.3 123.6,408.3 250.6,487.5 162.9,408.3 	"/>
	<polyline class="st0" points="329.1,399.3 243,373.4 162.9,408.3 	"/>
	<polyline class="st0" points="343.4,389.2 304.9,377.4 287.7,386.6 	"/>
	<polyline class="st0" points="210.2,387.7 193,374.4 147.3,399 	"/>
</g>
<g id="Layer_2_copy">
	<polyline class="st0" points="326.2,285.4 373,253.7 243,16.5 118.9,268 165.7,291.4 	"/>
	<polyline class="st0" points="326.2,285.4 243,260.4 165.7,291.4 	"/>
	<line class="st0" x1="243" y1="260.4" x2="243" y2="16.5"/>
	<polyline class="st0" points="373,253.7 376,279.3 347.9,270.8 	"/>
	<polyline class="st0" points="270.1,268.6 243.6,285.1 221.6,269.8 	"/>
	<polyline class="st0" points="118.9,268 131.2,293.3 148.6,284 	"/>
</g>
</svg>
