<?xml version="1.0" encoding="utf-8"?>
<!-- Generator: Adobe Illustrator 22.1.0, SVG Export Plug-In . SVG Version: 6.00 Build 0)  -->
<svg version="1.1" xmlns="http://www.w3.org/2000/svg" xmlns:xlink="http://www.w3.org/1999/xlink" x="0px" y="0px"
	 viewBox="0 0 504 504" style="enable-background:new 0 0 504 504;" xml:space="preserve">
<style type="text/css">
	.st0{fill:none;stroke:#00AEEF;stroke-width:2;stroke-linecap:round;stroke-linejoin:round;stroke-miterlimit:10;stroke-dasharray: 1000;
				stroke-dashoffset: 1000;

				animation: dash 10s linear alternate infinite;

				animation-delay: 1s;
			}

			@keyframes dash {
			  from {
				stroke-dashoffset: 1000;
			  }
			  to {
				stroke-dashoffset: 0;

			  }
			}	
	.st1{display:none;fill:none;stroke:#00AEEF;stroke-width:2;stroke-linejoin:round;stroke-miterlimit:10;stroke-dasharray: 1000;
				stroke-dashoffset: 1000;

				animation: dash 10s linear alternate infinite;

				animation-delay: 1s;
			}

			@keyframes dash {
			  from {
				stroke-dashoffset: 1000;
			  }
			  to {
				stroke-dashoffset: 0;

			  }
			}	
	.st2{fill:none;stroke:#00AEEF;stroke-width:2;stroke-linejoin:round;stroke-miterlimit:10;stroke-dasharray: 1000;
				stroke-dashoffset: 1000;

				animation: dash 10s linear alternate infinite;

				animation-delay: 1s;
			}

			@keyframes dash {
			  from {
				stroke-dashoffset: 1000;
			  }
			  to {
				stroke-dashoffset: 0;

			  }
			}	
</style>
<g id="Layer_7">
	<polyline class="st0" points="303.7,398.1 207,397.2 110.3,396.3 	"/>
	<polyline class="st0" points="303.7,398.1 350,378.6 208.5,481.1 65.5,378.6 110.3,396.3 	"/>
	<polyline class="st0" points="110.3,396.3 208.5,481.1 303.7,398.1 	"/>
	<polyline class="st0" points="65.5,378.6 207.9,362.9 350,378.6 	"/>
</g>
<g id="Layer_3">
	<polygon class="st1" points="267.1,249 223.8,248.6 180.5,248.2 202.5,210.9 224.5,173.6 245.8,211.3 	"/>
	<polygon class="st2" points="402,342.2 457.3,320.6 463.5,160.9 	"/>
	<polygon class="st2" points="207.9,340 152.7,318.3 148.6,158.7 	"/>
	<polygon class="st2" points="306.8,171.6 463.5,160.9 402,340 	"/>
	<polygon class="st2" points="306.8,171.6 148.6,158.7 207.9,337.7 	"/>
	<g id="Layer_5">
		<line class="st2" x1="207.9" y1="340" x2="402" y2="342.2"/>
	</g>
	<polyline class="st0" points="148.6,158.7 236.2,138 385.1,138 463.5,160.9 	"/>
</g>
<g id="Layer_6">
	<polyline class="st2" points="206.7,21.4 208.5,106.8 77.2,93.9 206.7,21.4 336.2,96.1 208.5,106.8 	"/>
</g>
</svg>
